# This file uses centimeters as units for non-parametric coordinates.

mtllib bag.mtl
g default
v 0.388747 2.211756 -0.041195
v 0.369003 2.211756 -0.133613
v 0.796339 2.211756 -0.133613
v 0.796339 2.211756 -0.041195
v 0.369003 2.211756 -0.065766
v 0.787106 2.211756 -0.065766
v 0.378100 2.211756 -0.115908
v 0.787106 2.211756 -0.115908
v 0.388747 2.662482 -0.041195
v 0.369003 2.662482 -0.065766
v 0.369003 2.662482 -0.133613
v 0.796342 2.662486 -0.133608
v 0.796339 2.662482 -0.041195
v 0.378100 2.662483 -0.115908
v 0.787106 2.662482 -0.065766
v 0.787104 2.662486 -0.115914
v 0.383221 2.730610 -0.058881
v 0.369003 2.710028 -0.041195
v 0.782121 2.730610 -0.058881
v 0.796339 2.710028 -0.041195
v 0.383221 2.730610 -0.115917
v 0.369003 2.710028 -0.133613
v 0.796345 2.710027 -0.133611
v 0.782114 2.730610 -0.115917
v 0.383221 2.730610 -0.065766
v 0.369003 2.710028 -0.065766
v 0.782121 2.730610 -0.065766
v 0.796339 2.710028 -0.065766
v 0.369003 2.710028 -0.115908
v 0.796334 2.710029 -0.115910
v 0.376119 2.112014 -0.050047
v 0.369003 2.122315 -0.041195
v 0.796339 2.122315 -0.041195
v 0.789223 2.112014 -0.050047
v 0.376119 2.112014 -0.124761
v 0.369003 2.122315 -0.133613
v 0.789223 2.112014 -0.124761
v 0.796339 2.122315 -0.133613
v 0.369003 2.122315 -0.115908
v 0.376119 2.112014 -0.115908
v 0.796339 2.122315 -0.115908
v 0.789223 2.112014 -0.115908
v 0.376119 2.112014 -0.065766
v 0.369003 2.122315 -0.065766
v 0.796339 2.122315 -0.065766
v 0.789223 2.112014 -0.065766
vt 0.716003 0.096413
vt 0.641578 0.547939
vt 0.336168 0.851798
vt 0.292596 0.390640
vt 0.360981 0.448816
vt 0.343944 0.451057
vt 0.346858 0.505837
vt 0.359956 0.487965
vt 0.630871 0.496075
vt 0.646832 0.500124
vt 0.343085 0.490734
vt 0.649730 0.460373
vt 0.632193 0.456852
vt 0.632274 0.461550
vt 0.360608 0.453508
vt 0.334455 0.427543
vt 0.370696 0.387607
vt 0.642427 0.514990
vt 0.345749 0.538881
vt 0.657509 0.405707
vt 0.645089 0.439026
vt 0.640268 0.396559
vt 0.349454 0.429921
vt 0.306408 0.391336
vt 0.289334 0.422600
vt 0.694253 0.438416
vt 0.706244 0.405982
vt 0.706474 0.438574
vt 0.301511 0.423483
vt 0.341919 0.395116
vt 0.660570 0.438908
vt 0.692383 0.405525
vt 0.337554 0.975349
vt 0.328692 0.981249
vt 0.329170 0.964196
vt 0.372660 0.010007
vt 0.653277 0.021990
vt 0.632510 0.990111
vt 0.623993 0.983724
vt 0.632987 0.973057
vt 0.339016 0.923471
vt 0.305125 0.020407
vt 0.311089 0.011765
vt 0.630800 0.922727
vt 0.634354 0.935707
vt 0.317168 0.011714
vt 0.351132 0.011019
vt 0.708833 0.026189
vt 0.674596 0.023964
vt 0.657721 0.031619
vt 0.383343 0.092244
vt 0.632615 0.860655
vt 0.334302 0.913875
vt 0.337859 0.964438
vt 0.673979 0.032656
vt 0.649563 0.102551
vt 0.355634 0.081835
vt 0.367449 0.019223
vt 0.317388 0.020405
vt 0.306435 0.080952
vt 0.624921 0.931910
vt 0.625264 0.938021
vt 0.702135 0.096014
vt 0.720385 0.035420
vt 0.320257 0.081494
vt 0.351323 0.019726
vt 0.667209 0.094196
vt 0.708156 0.034835
vt 0.338840 0.929628
vt 0.624297 0.972815
vn 0.991601 -0.015863 0.128359
vn 0.992212 0.014701 0.123694
vn 0.902003 0.007711 0.431660
vn 0.895492 -0.008297 0.445000
vn -0.990840 -0.012527 0.134462
vn -0.991500 0.011563 0.129595
vn -0.803030 0.013605 0.595783
vn -0.791994 -0.013467 0.610381
vn 0.000006 0.000002 -1.000000
vn 0.000006 0.000002 -1.000000
vn 0.000005 0.000005 -1.000000
vn 0.000005 0.000005 -1.000000
vn 0.945384 0.008080 -0.325859
vn 0.993547 0.014145 -0.112534
vn 0.993040 -0.015263 -0.116783
vn 0.941490 -0.008723 -0.336928
vn 0.000000 0.000000 1.000000
vn 0.000000 0.000000 1.000000
vn 0.000000 0.000000 1.000000
vn 0.000000 0.000000 1.000000
vn -0.904541 0.007617 0.426318
vn -0.999966 0.008307 -0.000200
vn -0.999961 -0.008880 -0.000215
vn -0.898196 -0.008200 0.439519
vn 0.000000 0.651729 0.758452
vn 0.000000 0.651729 0.758452
vn 0.000000 0.651729 0.758452
vn 0.000000 0.651729 0.758452
vn -0.822766 0.568380 0.000000
vn -0.822766 0.568380 0.000000
vn -0.822766 0.568380 0.000000
vn -0.822766 0.568380 0.000000
vn 0.822764 0.568383 0.000000
vn 0.822764 0.568383 0.000000
vn 0.822749 0.568405 -0.000066
vn 0.822749 0.568405 -0.000066
vn -0.822766 0.568380 0.000000
vn -0.822766 0.568381 0.000000
vn -0.822766 0.568380 0.000000
vn 0.000003 0.651903 -0.758302
vn 0.000003 0.651903 -0.758302
vn 0.000003 0.651903 -0.758302
vn 0.000003 0.651903 -0.758302
vn 0.822721 0.568445 0.000404
vn 0.822743 0.568414 -0.000055
vn 0.822741 0.568417 -0.000013
vn 0.000000 1.000000 0.000000
vn 0.000000 1.000000 0.000000
vn 0.000000 1.000000 0.000005
vn 0.000000 1.000000 0.000005
vn 0.000000 1.000000 0.000006
vn 0.000000 1.000000 0.000006
vn -0.988873 -0.131020 0.070458
vn -0.911144 -0.189188 0.366093
vn 0.000008 -0.000037 -1.000000
vn 0.000008 -0.000037 -1.000000
vn 0.985258 -0.159856 -0.060928
vn 0.978356 -0.095001 -0.183831
vn 0.000000 0.000000 1.000000
vn 0.000000 0.000000 1.000000
vn -0.995454 -0.095239 0.000000
vn -0.964411 -0.092269 0.247785
vn 0.983827 -0.166120 0.066991
vn 0.963281 -0.093536 0.251676
vn -0.822766 -0.568381 0.000000
vn -0.822766 -0.568381 0.000000
vn -0.822766 -0.568381 0.000000
vn -0.822766 -0.568381 0.000000
vn 0.000000 -0.651733 0.758448
vn 0.000000 -0.651733 0.758448
vn 0.000000 -0.651733 0.758448
vn 0.000000 -0.651733 0.758448
vn 0.822762 -0.568386 0.000000
vn 0.822762 -0.568386 0.000000
vn 0.822766 -0.568381 0.000000
vn 0.822766 -0.568381 0.000000
vn 0.000000 -0.651733 -0.758448
vn 0.000000 -0.651733 -0.758448
vn 0.000000 -0.651733 -0.758448
vn 0.000000 -0.651733 -0.758448
vn -0.822765 -0.568381 0.000000
vn -0.822765 -0.568381 0.000000
vn -0.822766 -0.568381 0.000000
vn -0.822766 -0.568381 0.000000
vn 0.822765 -0.568381 0.000000
vn 0.822765 -0.568381 0.000000
vn 0.822767 -0.568379 0.000000
vn 0.822767 -0.568379 0.000000
vn 0.000000 0.000000 1.000000
vn 0.000000 0.000000 1.000000
vn 0.000000 0.000000 -1.000000
vn 0.000000 0.000000 -1.000000
vn 0.000000 -1.000000 0.000000
vn 0.000000 -1.000000 0.000000
vn 0.000000 -1.000000 0.000000
vn 0.000000 -1.000000 0.000000
vn 0.981539 0.050665 -0.184429
vn 0.994418 0.085779 -0.061448
vn -0.995019 0.070081 0.070898
vn -0.923072 0.101886 0.370887
vn -0.967371 0.049199 0.248541
vn -0.998709 0.050793 0.000000
vn 0.000000 -1.000000 0.000000
vn 0.000000 -1.000000 0.000000
vn 0.000000 -1.000000 0.000000
vn 0.000000 -1.000000 0.000000
vn 0.993716 0.089201 0.067618
vn 0.966439 0.049885 0.252008
s 1
g Bag
usemtl lambert3SG
f 16/32/1 8/63/2 3/1/3 12/27/4
s 2
f 10/30/5 5/57/6 1/51/7 9/17/8
s 3
f 11/19/9 12/2/10 3/52/11 2/3/12
s 1
f 4/56/13 6/67/14 15/20/15 13/22/16
s 5
f 1/51/17 4/56/18 13/22/19 9/17/20
s 2
f 2/60/21 7/65/22 14/24/23 11/4/24
f 14/24/23 7/65/22 5/57/6 10/30/5
s 1
f 15/20/15 6/67/14 8/63/2 16/32/1
s off
f 17/5/25 18/23/26 20/21/27 19/13/28
s 7
f 18/23/29 17/5/30 25/15/31 26/6/32
s 8
f 19/13/33 20/21/34 28/12/35 27/14/36
s 7
f 21/8/37 22/7/38 29/11/39
s off
f 22/7/40 21/8/41 24/9/42 23/18/43
s 8
f 23/18/44 24/9/45 30/10/46
s 7
f 26/6/32 25/15/31 21/8/37 29/11/39
s 8
f 27/14/36 28/12/35 30/10/46 24/9/45
s 9
f 17/5/47 19/13/48 27/14/49 25/15/50
f 25/15/50 27/14/49 24/9/51 21/8/52
s 2
f 26/16/53 10/30/5 9/17/8 18/23/54
s 3
f 22/7/55 23/18/56 12/2/10 11/19/9
s 1
f 13/22/16 15/20/15 28/31/57 20/21/58
s 5
f 9/17/20 13/22/19 20/21/59 18/23/60
s 2
f 11/4/24 14/24/23 29/29/61 22/25/62
s 1
f 30/26/63 16/32/1 12/27/4 23/28/64
s 2
f 29/29/61 14/24/23 10/30/5 26/16/53
s 1
f 28/31/57 15/20/15 16/32/1 30/26/63
s 10
f 31/33/65 32/34/66 44/35/67 43/54/68
s off
f 32/58/69 31/36/70 34/37/71 33/50/72
s 11
f 33/38/73 34/39/74 46/70/75 45/40/76
s off
f 35/41/77 36/53/78 38/44/79 37/61/80
s 10
f 36/42/81 35/43/82 40/46/83 39/59/84
s 11
f 37/61/85 38/44/86 41/45/87 42/62/88
s 10
f 39/59/84 40/46/83 43/47/68 44/66/67
s 11
f 42/48/88 41/68/87 45/55/76 46/49/75
s 5
f 32/58/89 33/50/90 4/56/18 1/51/17
s 3
f 2/3/12 3/52/11 38/44/91 36/53/92
s 12
f 43/54/93 46/70/94 34/39/95 31/33/96
s 1
f 33/50/97 45/55/98 6/67/14 4/56/13
s 2
f 5/57/6 44/66/99 32/58/100 1/51/7
f 36/42/101 39/59/102 7/65/22 2/60/21
s 12
f 35/41/103 37/61/104 42/62/105 40/69/106
s 1
f 8/63/2 41/68/107 38/64/108 3/1/3
s 2
f 7/65/22 39/59/102 44/66/99 5/57/6
s 1
f 6/67/14 45/55/98 41/68/107 8/63/2
s 12
f 40/69/106 42/62/105 46/70/94 43/54/93
