# This file uses centimeters as units for non-parametric coordinates.

mtllib Quarter.mtl
g default
v 3.838668 1.536287 2.575788
v 3.824687 1.536287 2.548347
v 3.802909 1.536287 2.526570
v 3.775468 1.536287 2.512588
v 3.745050 1.536287 2.507770
v 3.714632 1.536287 2.512588
v 3.687191 1.536287 2.526569
v 3.665413 1.536287 2.548347
v 3.651432 1.536287 2.575788
v 3.646614 1.536287 2.606206
v 3.651432 1.536287 2.636624
v 3.665413 1.536287 2.664065
v 3.687191 1.536287 2.685842
v 3.714632 1.536287 2.699824
v 3.745050 1.536287 2.704642
v 3.775468 1.536287 2.699824
v 3.802909 1.536287 2.685842
v 3.824686 1.536287 2.664065
v 3.838668 1.536287 2.636624
v 3.843486 1.536287 2.606206
v 3.838668 1.543487 2.575788
v 3.824687 1.543487 2.548347
v 3.802909 1.543487 2.526570
v 3.775468 1.543487 2.512588
v 3.745050 1.543487 2.507770
v 3.714632 1.543487 2.512588
v 3.687191 1.543487 2.526569
v 3.665413 1.543487 2.548347
v 3.651432 1.543487 2.575788
v 3.646614 1.543487 2.606206
v 3.651432 1.543487 2.636624
v 3.665413 1.543487 2.664065
v 3.687191 1.543487 2.685842
v 3.714632 1.543487 2.699824
v 3.745050 1.543487 2.704642
v 3.775468 1.543487 2.699824
v 3.802909 1.543487 2.685842
v 3.824686 1.543487 2.664065
v 3.838668 1.543487 2.636624
v 3.843486 1.543487 2.606206
v 3.745050 1.536287 2.606206
v 3.745050 1.543487 2.606206
vt 0.648603 0.107966
vt 0.626409 0.064408
vt 0.591842 0.029841
vt 0.548284 0.007648
vt 0.500000 -0.000000
vt 0.451716 0.007647
vt 0.408159 0.029841
vt 0.373591 0.064408
vt 0.351397 0.107966
vt 0.343750 0.156250
vt 0.351397 0.204534
vt 0.373591 0.248091
vt 0.408159 0.282659
vt 0.451716 0.304853
vt 0.500000 0.312500
vt 0.548284 0.304853
vt 0.591841 0.282659
vt 0.626409 0.248092
vt 0.648602 0.204534
vt 0.656250 0.156250
vt 0.050635 0.316242
vt 0.094739 0.320433
vt 0.138843 0.324622
vt 0.182947 0.328813
vt 0.227051 0.333004
vt 0.271155 0.337196
vt 0.315259 0.341386
vt 0.359363 0.345577
vt 0.403467 0.349767
vt 0.447571 0.353957
vt 0.491674 0.358148
vt 0.535778 0.362339
vt 0.579882 0.366529
vt 0.623986 0.370719
vt 0.668090 0.374910
vt 0.712194 0.379102
vt 0.756298 0.383292
vt 0.800402 0.387484
vt 0.844506 0.391674
vt 0.888609 0.395864
vt 0.932713 0.400054
vt 0.067286 0.599948
vt 0.111390 0.604137
vt 0.155493 0.608327
vt 0.199597 0.612518
vt 0.243701 0.616707
vt 0.287805 0.620899
vt 0.331909 0.625090
vt 0.376013 0.629280
vt 0.420117 0.633471
vt 0.464221 0.637661
vt 0.508325 0.641852
vt 0.552428 0.646043
vt 0.596533 0.650234
vt 0.640637 0.654425
vt 0.684740 0.658615
vt 0.728844 0.662805
vt 0.772948 0.666996
vt 0.817052 0.671186
vt 0.861156 0.675377
vt 0.905260 0.679568
vt 0.949364 0.683759
vt 0.648603 0.795466
vt 0.626409 0.751909
vt 0.591841 0.717341
vt 0.548284 0.695147
vt 0.500000 0.687500
vt 0.451716 0.695147
vt 0.408159 0.717341
vt 0.373591 0.751909
vt 0.351397 0.795466
vt 0.343750 0.843750
vt 0.351397 0.892034
vt 0.373591 0.935592
vt 0.408159 0.970159
vt 0.451716 0.992353
vt 0.500000 1.000000
vt 0.548284 0.992352
vt 0.591842 0.970159
vt 0.626409 0.935592
vt 0.648603 0.892034
vt 0.656250 0.843750
vt 0.500000 0.156250
vt 0.500000 0.843750
vn 0.951058 0.000000 -0.309013
vn 0.809018 0.000000 -0.587783
vn 0.809018 0.000000 -0.587783
vn 0.951058 0.000000 -0.309013
vn 0.587783 0.000000 -0.809018
vn 0.587783 0.000000 -0.809018
vn 0.309022 0.000000 -0.951055
vn 0.309022 0.000000 -0.951055
vn 0.000004 0.000000 -1.000000
vn 0.000004 0.000000 -1.000000
vn -0.309018 0.000000 -0.951056
vn -0.309018 0.000000 -0.951056
vn -0.587782 0.000000 -0.809019
vn -0.587782 0.000000 -0.809019
vn -0.809018 0.000000 -0.587784
vn -0.809018 0.000000 -0.587784
vn -0.951057 0.000000 -0.309017
vn -0.951057 0.000000 -0.309017
vn -1.000000 0.000000 0.000000
vn -1.000000 0.000000 0.000000
vn -0.951056 0.000000 0.309018
vn -0.951056 0.000000 0.309018
vn -0.809016 0.000000 0.587786
vn -0.809016 0.000000 0.587786
vn -0.587789 0.000000 0.809014
vn -0.587789 0.000000 0.809014
vn -0.309020 0.000000 0.951055
vn -0.309020 0.000000 0.951055
vn 0.000000 0.000000 1.000000
vn 0.000000 0.000000 1.000000
vn 0.309018 0.000000 0.951056
vn 0.309018 0.000000 0.951056
vn 0.587786 0.000000 0.809016
vn 0.587786 0.000000 0.809016
vn 0.809020 0.000000 0.587781
vn 0.809020 0.000000 0.587781
vn 0.951057 0.000000 0.309017
vn 0.951057 0.000000 0.309017
vn 1.000000 0.000000 0.000004
vn 1.000000 0.000000 0.000004
vn 0.000000 -1.000000 -0.000000
vn 0.000000 -1.000000 -0.000002
vn 0.000000 -1.000000 -0.000001
vn 0.000000 -1.000000 -0.000002
vn 0.000000 -1.000000 0.000000
vn 0.000000 -1.000000 0.000000
vn 0.000000 -1.000000 -0.000002
vn 0.000000 -1.000000 -0.000002
vn 0.000000 -1.000000 0.000000
vn 0.000000 -1.000000 0.000000
vn 0.000000 -1.000000 0.000000
vn 0.000000 -1.000000 0.000000
vn 0.000000 -1.000000 0.000000
vn 0.000000 -1.000000 0.000001
vn 0.000000 -1.000000 0.000001
vn 0.000000 -1.000000 0.000000
vn 0.000000 -1.000000 0.000002
vn 0.000000 -1.000000 -0.000000
vn 0.000000 -1.000000 -0.000002
vn 0.000000 -1.000000 0.000000
vn 0.000000 -1.000000 -0.000005
vn 0.000000 1.000000 0.000000
vn 0.000000 1.000000 -0.000002
vn 0.000000 1.000000 -0.000001
vn 0.000000 1.000000 -0.000002
vn 0.000000 1.000000 0.000000
vn 0.000000 1.000000 0.000000
vn 0.000000 1.000000 0.000000
vn 0.000000 1.000000 -0.000002
vn 0.000000 1.000000 -0.000000
vn 0.000000 1.000000 -0.000002
vn 0.000000 1.000000 0.000000
vn 0.000000 1.000000 0.000000
vn 0.000000 1.000000 -0.000005
vn 0.000000 1.000000 0.000000
vn 0.000000 1.000000 0.000000
vn 0.000000 1.000000 0.000000
vn 0.000000 1.000000 0.000000
vn 0.000000 1.000000 0.000000
vn 0.000000 1.000000 0.000000
vn 0.000000 1.000000 0.000000
vn 0.000000 1.000000 0.000000
s 1
g Quarter
usemtl lambert6SG
f 1/21/1 2/22/2 22/43/3 21/42/4
f 2/22/2 3/23/5 23/44/6 22/43/3
f 3/23/5 4/24/7 24/45/8 23/44/6
f 4/24/7 5/25/9 25/46/10 24/45/8
f 5/25/9 6/26/11 26/47/12 25/46/10
f 6/26/11 7/27/13 27/48/14 26/47/12
f 7/27/13 8/28/15 28/49/16 27/48/14
f 8/28/15 9/29/17 29/50/18 28/49/16
f 9/29/17 10/30/19 30/51/20 29/50/18
f 10/30/19 11/31/21 31/52/22 30/51/20
f 11/31/21 12/32/23 32/53/24 31/52/22
f 12/32/23 13/33/25 33/54/26 32/53/24
f 13/33/25 14/34/27 34/55/28 33/54/26
f 14/34/27 15/35/29 35/56/30 34/55/28
f 15/35/29 16/36/31 36/57/32 35/56/30
f 16/36/31 17/37/33 37/58/34 36/57/32
f 17/37/33 18/38/35 38/59/36 37/58/34
f 18/38/35 19/39/37 39/60/38 38/59/36
f 19/39/37 20/40/39 40/61/40 39/60/38
f 20/40/39 1/41/1 21/62/4 40/61/40
s 2
f 2/2/41 1/1/42 41/83/43
f 3/3/44 2/2/41 41/83/43
f 4/4/45 3/3/44 41/83/43
f 5/5/46 4/4/45 41/83/43
f 6/6/47 5/5/46 41/83/43
f 7/7/48 6/6/47 41/83/43
f 8/8/49 7/7/48 41/83/43
f 9/9/50 8/8/49 41/83/43
f 10/10/51 9/9/50 41/83/43
f 11/11/52 10/10/51 41/83/43
f 12/12/53 11/11/52 41/83/43
f 13/13/54 12/12/53 41/83/43
f 14/14/55 13/13/54 41/83/43
f 15/15/56 14/14/55 41/83/43
f 16/16/57 15/15/56 41/83/43
f 17/17/58 16/16/57 41/83/43
f 18/18/59 17/17/58 41/83/43
f 19/19/60 18/18/59 41/83/43
f 20/20/61 19/19/60 41/83/43
f 1/1/42 20/20/61 41/83/43
s 3
f 21/81/62 22/80/63 42/84/64
f 22/80/63 23/79/65 42/84/64
f 23/79/65 24/78/66 42/84/64
f 24/78/66 25/77/67 42/84/64
f 25/77/67 26/76/68 42/84/64
f 26/76/68 27/75/69 42/84/64
f 27/75/69 28/74/70 42/84/64
f 28/74/70 29/73/71 42/84/64
f 29/73/71 30/72/72 42/84/64
f 30/72/72 31/71/73 42/84/64
f 31/71/73 32/70/74 42/84/64
f 32/70/74 33/69/75 42/84/64
f 33/69/75 34/68/76 42/84/64
f 34/68/76 35/67/77 42/84/64
f 35/67/77 36/66/78 42/84/64
f 36/66/78 37/65/79 42/84/64
f 37/65/79 38/64/80 42/84/64
f 38/64/80 39/63/81 42/84/64
f 39/63/81 40/82/82 42/84/64
f 40/82/82 21/81/62 42/84/64
