# This file uses centimeters as units for non-parametric coordinates.

mtllib Silver.mtl
g default
v 3.415025 1.537121 2.779970
v 3.404282 1.537121 2.758886
v 3.387549 1.537121 2.742153
v 3.366465 1.537121 2.731410
v 3.343092 1.537121 2.727708
v 3.319720 1.537121 2.731410
v 3.298635 1.537121 2.742153
v 3.281902 1.537121 2.758886
v 3.271159 1.537121 2.779971
v 3.267458 1.537121 2.803343
v 3.271159 1.537121 2.826715
v 3.281902 1.537121 2.847800
v 3.298635 1.537121 2.864533
v 3.319720 1.537121 2.875276
v 3.343092 1.537121 2.878978
v 3.366465 1.537121 2.875276
v 3.387549 1.537121 2.864532
v 3.404282 1.537121 2.847800
v 3.415025 1.537121 2.826715
v 3.418727 1.537121 2.803343
v 3.415025 1.542653 2.779970
v 3.404282 1.542653 2.758886
v 3.387549 1.542653 2.742153
v 3.366465 1.542653 2.731410
v 3.343092 1.542653 2.727708
v 3.319720 1.542653 2.731410
v 3.298635 1.542653 2.742153
v 3.281902 1.542653 2.758886
v 3.271159 1.542653 2.779971
v 3.267458 1.542653 2.803343
v 3.271159 1.542653 2.826715
v 3.281902 1.542653 2.847800
v 3.298635 1.542653 2.864533
v 3.319720 1.542653 2.875276
v 3.343092 1.542653 2.878978
v 3.366465 1.542653 2.875276
v 3.387549 1.542653 2.864532
v 3.404282 1.542653 2.847800
v 3.415025 1.542653 2.826715
v 3.418727 1.542653 2.803343
v 3.343092 1.537121 2.803343
v 3.343092 1.542653 2.803343
vt 0.648603 0.107966
vt 0.626409 0.064409
vt 0.591842 0.029841
vt 0.548284 0.007647
vt 0.500000 0.000000
vt 0.451716 0.007647
vt 0.408159 0.029841
vt 0.373591 0.064408
vt 0.351398 0.107966
vt 0.343750 0.156250
vt 0.351397 0.204533
vt 0.373591 0.248091
vt 0.408159 0.282659
vt 0.451716 0.304853
vt 0.500000 0.312500
vt 0.548284 0.304852
vt 0.591842 0.282659
vt 0.626409 0.248091
vt 0.648603 0.204534
vt 0.656250 0.156250
vt 0.098752 0.381712
vt 0.138877 0.381959
vt 0.179002 0.382207
vt 0.219127 0.382455
vt 0.259252 0.382702
vt 0.299377 0.382950
vt 0.339502 0.383198
vt 0.379626 0.383445
vt 0.419751 0.383693
vt 0.459876 0.383941
vt 0.500000 0.384188
vt 0.540125 0.384436
vt 0.580251 0.384683
vt 0.620375 0.384931
vt 0.660500 0.385179
vt 0.700625 0.385427
vt 0.740750 0.385674
vt 0.780875 0.385922
vt 0.821000 0.386169
vt 0.861124 0.386418
vt 0.901249 0.386665
vt 0.098750 0.613336
vt 0.138875 0.613584
vt 0.178999 0.613831
vt 0.219125 0.614079
vt 0.259249 0.614326
vt 0.299374 0.614574
vt 0.339499 0.614822
vt 0.379624 0.615070
vt 0.419749 0.615317
vt 0.459874 0.615565
vt 0.499998 0.615812
vt 0.540123 0.616060
vt 0.580248 0.616308
vt 0.620373 0.616556
vt 0.660498 0.616803
vt 0.700623 0.617051
vt 0.740748 0.617299
vt 0.780872 0.617546
vt 0.820997 0.617794
vt 0.861122 0.618042
vt 0.901247 0.618289
vt 0.648603 0.795466
vt 0.626409 0.751909
vt 0.591842 0.717341
vt 0.548284 0.695148
vt 0.500000 0.687500
vt 0.451716 0.695147
vt 0.408159 0.717341
vt 0.373591 0.751909
vt 0.351397 0.795467
vt 0.343750 0.843750
vt 0.351397 0.892033
vt 0.373591 0.935591
vt 0.408158 0.970159
vt 0.451716 0.992353
vt 0.500000 1.000000
vt 0.548284 0.992353
vt 0.591842 0.970159
vt 0.626409 0.935591
vt 0.648603 0.892034
vt 0.656250 0.843750
vt 0.500000 0.156250
vt 0.500000 0.843750
vn 0.951056 0.000000 -0.309017
vn 0.809015 0.000000 -0.587788
vn 0.809015 0.000000 -0.587788
vn 0.951056 0.000000 -0.309017
vn 0.587788 0.000000 -0.809015
vn 0.587788 0.000000 -0.809015
vn 0.309019 0.000000 -0.951056
vn 0.309019 0.000000 -0.951056
vn 0.000000 0.000000 -1.000000
vn 0.000000 0.000000 -1.000000
vn -0.309019 0.000000 -0.951056
vn -0.309019 0.000000 -0.951056
vn -0.587785 0.000000 -0.809018
vn -0.587785 0.000000 -0.809018
vn -0.809016 0.000000 -0.587786
vn -0.809016 0.000000 -0.587786
vn -0.951059 0.000000 -0.309011
vn -0.951059 0.000000 -0.309011
vn -1.000000 0.000000 0.000000
vn -1.000000 0.000000 0.000000
vn -0.951058 0.000000 0.309012
vn -0.951058 0.000000 0.309012
vn -0.809020 0.000000 0.587781
vn -0.809020 0.000000 0.587781
vn -0.587785 0.000000 0.809018
vn -0.587785 0.000000 0.809018
vn -0.309012 0.000000 0.951058
vn -0.309012 0.000000 0.951058
vn 0.000000 0.000000 1.000000
vn 0.000000 0.000000 1.000000
vn 0.309023 0.000000 0.951055
vn 0.309023 0.000000 0.951055
vn 0.587788 0.000000 0.809015
vn 0.587788 0.000000 0.809015
vn 0.809015 0.000000 0.587788
vn 0.809015 0.000000 0.587788
vn 0.951055 0.000000 0.309023
vn 0.951055 0.000000 0.309023
vn 1.000000 0.000000 0.000005
vn 1.000000 0.000000 0.000005
vn 0.000000 -1.000000 0.000000
vn 0.000000 -1.000000 -0.000004
vn 0.000000 -1.000000 0.000000
vn 0.000000 -1.000000 0.000002
vn 0.000000 -1.000000 -0.000002
vn 0.000000 -1.000000 0.000000
vn 0.000000 -1.000000 0.000000
vn 0.000000 -1.000000 0.000004
vn 0.000000 -1.000000 0.000000
vn 0.000000 -1.000000 -0.000004
vn 0.000000 -1.000000 0.000000
vn 0.000000 -1.000000 0.000004
vn 0.000000 -1.000000 0.000004
vn 0.000000 -1.000000 0.000000
vn 0.000000 -1.000000 -0.000001
vn 0.000000 -1.000000 -0.000001
vn 0.000000 -1.000000 0.000004
vn 0.000000 -1.000000 0.000000
vn 0.000000 -1.000000 -0.000004
vn 0.000000 -1.000000 0.000000
vn 0.000000 -1.000000 0.000000
vn 0.000000 1.000000 -0.000004
vn 0.000000 1.000000 0.000000
vn 0.000000 1.000000 -0.000001
vn 0.000000 1.000000 0.000000
vn 0.000000 1.000000 0.000000
vn 0.000000 1.000000 0.000000
vn 0.000000 1.000000 -0.000002
vn 0.000000 1.000000 -0.000002
vn 0.000000 1.000000 0.000000
vn 0.000000 1.000000 0.000000
vn 0.000000 1.000000 0.000000
vn 0.000000 1.000000 0.000000
vn 0.000000 1.000000 0.000000
vn 0.000000 1.000000 0.000000
vn 0.000000 1.000000 0.000000
vn 0.000000 1.000000 -0.000002
vn 0.000000 1.000000 -0.000002
vn 0.000000 1.000000 0.000000
vn 0.000000 1.000000 0.000000
vn 0.000000 1.000000 0.000000
vn 0.000000 1.000000 -0.000004
s 1
g Silver_Coins
usemtl lambert8SG
f 1/21/1 2/22/2 22/43/3 21/42/4
f 2/22/2 3/23/5 23/44/6 22/43/3
f 3/23/5 4/24/7 24/45/8 23/44/6
f 4/24/7 5/25/9 25/46/10 24/45/8
f 5/25/9 6/26/11 26/47/12 25/46/10
f 6/26/11 7/27/13 27/48/14 26/47/12
f 7/27/13 8/28/15 28/49/16 27/48/14
f 8/28/15 9/29/17 29/50/18 28/49/16
f 9/29/17 10/30/19 30/51/20 29/50/18
f 10/30/19 11/31/21 31/52/22 30/51/20
f 11/31/21 12/32/23 32/53/24 31/52/22
f 12/32/23 13/33/25 33/54/26 32/53/24
f 13/33/25 14/34/27 34/55/28 33/54/26
f 14/34/27 15/35/29 35/56/30 34/55/28
f 15/35/29 16/36/31 36/57/32 35/56/30
f 16/36/31 17/37/33 37/58/34 36/57/32
f 17/37/33 18/38/35 38/59/36 37/58/34
f 18/38/35 19/39/37 39/60/38 38/59/36
f 19/39/37 20/40/39 40/61/40 39/60/38
f 20/40/39 1/41/1 21/62/4 40/61/40
s 2
f 2/2/41 1/1/42 41/83/43
f 3/3/44 2/2/41 41/83/43
f 4/4/45 3/3/44 41/83/43
f 5/5/46 4/4/45 41/83/43
f 6/6/47 5/5/46 41/83/43
f 7/7/48 6/6/47 41/83/43
f 8/8/49 7/7/48 41/83/43
f 9/9/50 8/8/49 41/83/43
f 10/10/51 9/9/50 41/83/43
f 11/11/52 10/10/51 41/83/43
f 12/12/53 11/11/52 41/83/43
f 13/13/54 12/12/53 41/83/43
f 14/14/55 13/13/54 41/83/43
f 15/15/56 14/14/55 41/83/43
f 16/16/57 15/15/56 41/83/43
f 17/17/58 16/16/57 41/83/43
f 18/18/59 17/17/58 41/83/43
f 19/19/60 18/18/59 41/83/43
f 20/20/61 19/19/60 41/83/43
f 1/1/42 20/20/61 41/83/43
s 3
f 21/81/62 22/80/63 42/84/64
f 22/80/63 23/79/65 42/84/64
f 23/79/65 24/78/66 42/84/64
f 24/78/66 25/77/67 42/84/64
f 25/77/67 26/76/68 42/84/64
f 26/76/68 27/75/69 42/84/64
f 27/75/69 28/74/70 42/84/64
f 28/74/70 29/73/71 42/84/64
f 29/73/71 30/72/72 42/84/64
f 30/72/72 31/71/73 42/84/64
f 31/71/73 32/70/74 42/84/64
f 32/70/74 33/69/75 42/84/64
f 33/69/75 34/68/76 42/84/64
f 34/68/76 35/67/77 42/84/64
f 35/67/77 36/66/78 42/84/64
f 36/66/78 37/65/79 42/84/64
f 37/65/79 38/64/80 42/84/64
f 38/64/80 39/63/81 42/84/64
f 39/63/81 40/82/82 42/84/64
f 40/82/82 21/81/62 42/84/64
